<?xml version="1.0" standalone="no"?>
<!DOCTYPE svg PUBLIC "-//W3C//DTD SVG 20010904//EN"
 "http://www.w3.org/TR/2001/REC-SVG-20010904/DTD/svg10.dtd">
<svg version="1.0" xmlns="http://www.w3.org/2000/svg"
 width="256.000000pt" height="256.000000pt" viewBox="0 0 256.000000 256.000000"
 preserveAspectRatio="xMidYMid meet">

<g transform="translate(0.000000,256.000000) scale(0.100000,-0.100000)"
fill="#000000" stroke="none">
<path d="M930 2503 c-227 -24 -462 -114 -625 -239 -26 -19 -49 -33 -51 -31 -3
3 -15 24 -27 48 -18 37 -27 45 -54 47 -27 3 -35 -1 -44 -22 -10 -22 34 -153
381 -1123 216 -604 397 -1104 403 -1110 12 -16 59 -17 75 -1 7 7 12 22 12 34
0 13 -54 174 -120 359 -67 185 -118 340 -115 345 16 26 179 136 258 175 172
82 300 85 566 13 153 -42 159 -43 311 -42 137 1 165 4 241 27 134 41 197 72
209 102 13 34 14 1354 1 1388 -6 14 -19 28 -30 32 -23 7 -35 1 -152 -73 -99
-62 -211 -107 -309 -124 -106 -18 -183 -1 -370 81 -85 38 -177 76 -205 85
-100 31 -233 42 -355 29z m172 -102 c20 -8 29 -31 71 -188 26 -99 47 -185 47
-192 0 -8 -10 -10 -32 -6 -68 13 -391 -37 -421 -64 -6 -6 71 -215 160 -438 3
-7 -19 -23 -50 -37 -69 -33 -157 -90 -230 -149 l-57 -47 -11 27 c-6 16 -41
114 -79 218 -37 105 -71 198 -75 207 -9 22 103 101 237 169 l98 49 -21 53
c-89 225 -119 311 -112 317 27 26 241 75 363 83 25 2 55 4 67 5 12 1 32 -2 45
-7z m576 -191 c41 -8 100 -11 163 -7 l99 6 1 -27 c0 -15 6 -94 13 -177 7 -82
10 -154 6 -158 -4 -4 -36 -12 -71 -17 -76 -11 -168 1 -248 33 l-56 22 -36 160
c-21 88 -40 174 -43 192 l-7 32 58 -24 c32 -13 86 -29 121 -35z m-345 -224
c40 -14 112 -43 162 -65 l89 -40 48 -207 c26 -115 45 -210 43 -212 -2 -2 -75
14 -162 36 l-158 40 -62 229 c-34 125 -62 231 -62 236 -1 13 28 8 102 -17z
m917 -232 l0 -215 -53 -24 c-29 -12 -85 -33 -125 -44 -40 -12 -72 -26 -72 -31
0 -5 7 -91 15 -191 9 -100 14 -183 12 -186 -9 -8 -167 -15 -209 -9 l-44 7 -44
189 c-24 105 -41 192 -39 194 3 3 38 2 79 -2 73 -7 214 -1 225 9 3 3 -2 90
-11 193 -9 104 -12 192 -7 196 4 4 44 21 88 39 44 17 100 45 125 61 25 16 48
29 53 29 4 1 7 -96 7 -215z m-956 -213 l60 -6 18 -70 c10 -38 33 -126 51 -195
l33 -126 -145 1 c-80 0 -166 -4 -191 -8 l-45 -8 -68 180 c-38 100 -66 185 -63
189 3 5 40 17 83 26 43 10 83 19 88 21 16 5 115 3 179 -4z"/>
</g>
</svg>
