<?xml version="1.0" standalone="no"?>
<!DOCTYPE svg PUBLIC "-//W3C//DTD SVG 20010904//EN"
 "http://www.w3.org/TR/2001/REC-SVG-20010904/DTD/svg10.dtd">
<svg version="1.0" xmlns="http://www.w3.org/2000/svg"
 width="128.000000pt" height="128.000000pt" viewBox="0 0 128.000000 128.000000"
 preserveAspectRatio="xMidYMid meet">

<g transform="translate(0.000000,128.000000) scale(0.100000,-0.100000)"
fill="#000000" stroke="none">
<path d="M2 934 l3 -219 27 -3 28 -3 0 -290 0 -289 55 0 55 0 0 281 0 281 113
-9 c145 -10 569 -10 715 0 l112 9 0 -92 c0 -82 2 -91 18 -88 14 3 17 17 20 96
2 73 6 92 17 92 13 0 15 -40 15 -270 0 -233 -2 -270 -15 -270 -13 0 -15 23
-15 148 0 144 -7 181 -29 168 -7 -5 -11 -63 -11 -177 l0 -169 55 0 55 0 0 289
0 290 28 3 27 3 3 218 2 217 -30 0 c-17 0 -93 -7 -168 -16 -156 -18 -562 -24
-770 -11 -127 8 -134 8 -130 -10 3 -15 17 -19 98 -26 173 -15 622 -11 784 7
82 9 155 16 162 16 11 0 14 -34 14 -179 0 -162 -2 -180 -18 -185 -142 -41
-1022 -41 -1164 0 -16 5 -18 23 -18 186 l0 181 49 -7 c32 -4 52 -3 56 5 12 19
-10 29 -78 36 l-67 6 2 -219z m128 -504 c0 -233 -2 -270 -15 -270 -13 0 -15
37 -15 270 0 233 2 270 15 270 13 0 15 -37 15 -270z"/>
<path d="M1020 1014 c-8 -1 -37 -6 -63 -9 -38 -5 -47 -10 -45 -23 2 -11 11
-16 26 -14 21 3 22 0 22 -62 0 -73 6 -96 26 -96 11 0 14 18 14 80 l0 81 30 6
c21 4 30 11 28 21 -3 17 -14 21 -38 16z"/>
<path d="M236 994 c-32 -32 -14 -86 34 -102 46 -16 39 -42 -11 -42 -33 0 -40
-3 -37 -17 2 -13 15 -19 44 -21 47 -3 74 16 74 51 0 30 -9 41 -47 61 -47 24
-43 46 7 46 28 0 40 4 40 14 0 29 -78 36 -104 10z"/>
<path d="M380 981 c0 -14 8 -21 28 -23 26 -3 27 -5 32 -81 3 -42 10 -77 15
-77 6 0 12 35 15 77 5 75 6 78 30 78 15 0 26 7 28 16 2 13 -9 18 -50 22 -86
11 -98 9 -98 -12z"/>
<path d="M580 970 c-18 -18 -20 -31 -18 -98 2 -60 6 -77 18 -77 10 0 16 12 18
33 3 26 7 32 28 32 21 0 24 -5 24 -36 0 -28 3 -35 18 -32 14 3 17 15 17 82 0
70 -2 80 -24 97 -30 25 -56 24 -81 -1z m64 -36 c10 -27 7 -34 -19 -34 -18 0
-25 5 -25 18 0 34 33 45 44 16z"/>
<path d="M734 977 c-3 -8 -4 -52 -2 -98 2 -67 6 -84 18 -84 10 0 16 12 18 33
4 41 28 40 51 -2 19 -34 37 -32 33 4 -5 43 -4 64 3 93 11 41 -17 67 -72 67
-27 0 -46 -5 -49 -13z m86 -47 c0 -16 -18 -30 -41 -30 -14 0 -11 48 4 53 20 7
37 -4 37 -23z"/>
</g>
</svg>
