<?xml version="1.0" standalone="no"?>
<!DOCTYPE svg PUBLIC "-//W3C//DTD SVG 20010904//EN"
 "http://www.w3.org/TR/2001/REC-SVG-20010904/DTD/svg10.dtd">
<svg version="1.0" xmlns="http://www.w3.org/2000/svg"
 width="128.000000pt" height="128.000000pt" viewBox="0 0 128.000000 128.000000"
 preserveAspectRatio="xMidYMid meet">

<g transform="translate(0.000000,128.000000) scale(0.100000,-0.100000)"
fill="#000000" stroke="none">
<path d="M5 1268 c-3 -7 -4 -294 -3 -638 l3 -625 635 0 635 0 0 270 c0 263 0
270 -20 270 -19 0 -20 -8 -23 -187 l-2 -188 -590 0 -590 0 0 465 0 465 590 0
590 0 2 -182 c3 -175 4 -183 23 -183 20 0 20 7 20 270 l0 270 -633 3 c-501 2
-634 0 -637 -10z m192 -70 c18 -18 33 -36 33 -40 0 -4 -40 -8 -90 -8 l-90 0 0
40 0 40 57 0 c51 0 61 -4 90 -32z m268 -8 l39 -40 -95 0 -95 0 -39 40 -39 40
95 0 95 0 39 -40z m272 8 c18 -18 33 -36 33 -40 0 -4 -42 -8 -93 -8 l-93 0
-39 40 -39 40 99 0 c98 0 99 0 132 -32z m268 -8 l39 -40 -95 0 -95 0 -39 40
-39 40 95 0 95 0 39 -40z m225 0 l0 -40 -53 0 c-49 0 -56 3 -92 40 l-39 40 92
0 92 0 0 -40z m-1030 -1105 c-31 -32 -39 -35 -92 -35 l-58 0 0 35 0 35 92 0
92 0 -34 -35z m260 0 l-34 -35 -95 0 -95 0 34 35 34 35 95 0 95 0 -34 -35z
m280 0 l-34 -35 -100 0 -100 0 34 35 34 35 100 0 100 0 -34 -35z m260 0 l-34
-35 -95 0 -95 0 34 35 34 35 95 0 95 0 -34 -35z m230 0 l0 -35 -92 0 -92 0 34
35 c31 32 39 35 92 35 l58 0 0 -35z"/>
<path d="M234 1015 c-10 -24 5 -35 47 -35 l39 0 0 -129 0 -130 -42 -3 c-36 -2
-44 -7 -46 -25 -3 -22 0 -23 66 -23 64 0 70 2 76 23 10 38 7 297 -4 318 -9 15
-22 19 -71 19 -43 0 -61 -4 -65 -15z"/>
<path d="M598 1018 c-10 -27 4 -38 48 -38 l44 0 0 -130 0 -130 -39 0 c-41 0
-72 -23 -54 -41 5 -5 39 -9 74 -7 l64 3 0 175 0 175 -66 3 c-48 2 -68 -1 -71
-10z"/>
<path d="M994 1016 c-10 -25 5 -36 52 -36 l44 0 0 -130 0 -130 -39 0 c-41 0
-72 -23 -54 -41 5 -5 39 -9 74 -7 l64 3 0 175 0 175 -68 3 c-52 2 -69 0 -73
-12z"/>
<path d="M1235 650 c-4 -7 -3 -16 3 -22 14 -14 45 -2 40 15 -6 16 -34 21 -43
7z"/>
<path d="M132 588 c2 -19 10 -24 46 -26 l42 -3 0 -129 0 -129 -42 -3 c-35 -2
-43 -7 -43 -23 0 -17 8 -20 60 -23 83 -4 85 0 85 172 0 194 3 186 -82 186 -66
0 -69 -1 -66 -22z"/>
<path d="M495 600 c-12 -20 16 -40 56 -40 l39 0 0 -129 0 -130 -47 -3 c-40 -3
-48 -6 -48 -23 0 -18 7 -20 70 -20 l70 0 0 175 0 175 -67 3 c-40 2 -69 -1 -73
-8z"/>
<path d="M895 600 c-12 -20 16 -40 56 -40 l39 0 0 -130 0 -130 -44 0 c-27 0
-46 -5 -49 -13 -11 -29 9 -38 74 -35 l64 3 0 175 0 175 -67 3 c-40 2 -69 -1
-73 -8z"/>
</g>
</svg>
